#!OML:ASF F:\VICON\USERDATA\INSTALL\rory3\rory3.ASF
:FULLY-SPECIFIED
:DEGREES
651
root 2.43153 29.5146 -1.4528 -166.321 -24.3062 -182.131
lowerback 10.8634 -2.48733 -4.1365
upperback 2.12925 -3.8603 1.65217
thorax -3.46841 -1.93878 4.57451
lowerneck -17.4922 1.62054 -10.3862
upperneck 38.978 1.48248 2.88057
head 17.0068 -1.63636 3.09284
rclavicle 8.33902e-014 -1.25234e-014
rhumerus -8.6568 -0.0719387 -77.0916
rradius 100.607
rwrist -6.38738
rhand -33.3769 -10.4629
rfingers 7.12502
rthumb -6.5781 -40.3408
lclavicle 8.33902e-014 -1.25234e-014
lhumerus 27.9227 -18.3065 79.3493
lradius 73.6903
lwrist 22.5361
lhand -19.5563 40.5908
lfingers 7.12502
lthumb 6.76813 70.4626
rfemur -16.0258 -7.72052 22.8753
rtibia 4.66112
rfoot 4.67769 -16.7301
rtoes 18.7248
lfemur -74.5293 12.6105 -34.3695
ltibia 92.5672
lfoot -18.2838 -19.7597
ltoes -16.4154
652
root 2.42461 29.5096 -1.4569 -166.178 -24.2966 -182.115
lowerback 10.8338 -2.46242 -4.18094
upperback 2.10661 -3.82877 1.66873
thorax -3.47498 -1.92125 4.61203
lowerneck -17.485 1.60742 -10.4925
upperneck 38.9652 1.4837 2.93171
head 16.9963 -1.64212 3.13504
rclavicle 4.21423e-014 -1.73937e-014
rhumerus -8.71412 -0.155651 -76.9087
rradius 100.757
rwrist -6.55906
rhand -33.3798 -10.4709
rfingers 7.12502
rthumb -6.58091 -40.3487
lclavicle 4.21423e-014 -1.73937e-014
lhumerus 27.9781 -18.4496 79.3765
lradius 73.9481
lwrist 22.3471
lhand -19.6891 40.797
lfingers 7.12502
lthumb 6.63997 70.6729
rfemur -16.4769 -7.73649 22.9043
rtibia 5.24644
rfoot 4.4772 -16.4914
rtoes 18.259
lfemur -74.4524 12.2984 -34.5338
ltibia 91.5635
lfoot -17.3648 -19.552
ltoes -14.3642
653
root 2.41573 29.5043 -1.46092 -166.149 -24.2071 -182.061
lowerback 10.9894 -2.42149 -4.31187
upperback 2.00963 -3.7898 1.74078
thorax -3.65288 -1.89126 4.77071
lowerneck -17.188 1.66559 -10.4781
upperneck 38.8525 1.56235 2.81046
head 16.8553 -1.62221 3.08374
rclavicle 3.43401e-014 1.56046e-014
rhumerus -8.93633 -0.116121 -76.7114
rradius 100.939
rwrist -6.70914
rhand -33.342 -10.3935
rfingers 7.12502
rthumb -6.54441 -40.2724
lclavicle 3.43401e-014 1.56046e-014
lhumerus 27.8269 -18.5152 79.5096
lradius 74.2273
lwrist 22.2713
lhand -19.7734 40.9078
lfingers 7.12502
lthumb 6.5586 70.7862
rfemur -16.8283 -7.67301 22.9297
rtibia 5.88143
rfoot 4.13956 -16.2593
rtoes 18.0533
lfemur -74.1789 12.0993 -34.6245
ltibia 90.6822
lfoot -16.4778 -19.3344
ltoes -11.6313
654
root 2.40315 29.495 -1.46586 -166.078 -24.0671 -182.034
lowerback 11.1211 -2.40344 -4.4249
upperback 1.91813 -3.77963 1.78356
thorax -3.81221 -1.87606 4.89048
lowerneck -17.0937 1.75512 -10.5119
upperneck 38.8995 1.69671 2.7456
head 16.8446 -1.59264 3.08177
rclavicle 4.51241e-014 -3.27001e-014
rhumerus -9.10193 -0.0315658 -76.5931
rradius 101.09
rwrist -6.87056
rhand -33.2206 -10.2992
rfingers 7.12502
rthumb -6.42716 -40.1817
lclavicle 4.51241e-014 -3.27001e-014
lhumerus 27.6 -18.5143 79.601
lradius 74.526
lwrist 22.1904
lhand -20.004 40.9573
lfingers 7.12502
lthumb 6.33599 70.8426
rfemur -17.1167 -7.56969 22.9066
rtibia 6.3141
rfoot 3.92259 -16.0827
rtoes 18.0476
lfemur -73.8682 11.8777 -34.7054
ltibia 90.0272
lfoot -15.8587 -19.2385
ltoes -4.64235
655
root 2.38984 29.4884 -1.47223 -165.965 -23.9245 -182.053
lowerback 11.0774 -2.36888 -4.46289
upperback 1.91629 -3.73787 1.71583
thorax -3.79695 -1.85495 4.83256
lowerneck -17.1784 1.78975 -10.4488
upperneck 39.0009 1.73894 2.70934
head 16.9179 -1.58075 3.06446
rclavicle -5.59082e-014 8.15017e-015
rhumerus -9.19787 -0.16065 -76.615
rradius 101.225
rwrist -7.00012
rhand -33.0822 -10.1983
rfingers 7.12502
rthumb -6.29357 -40.0848
lclavicle -5.59082e-014 8.15017e-015
lhumerus 27.5248 -18.6354 79.5708
lradius 74.8013
lwrist 21.9955
lhand -20.2033 41.0702
lfingers 7.12502
lthumb 6.1435 70.9611
rfemur -17.3746 -7.47671 22.8325
rtibia 6.61939
rfoot 3.81946 -15.9937
rtoes 17.884
lfemur -73.5623 11.6666 -34.8668
ltibia 89.6214
lfoot -16.1637 -18.8501
ltoes 0.732312
656
root 2.37687 29.4843 -1.48007 -165.899 -23.8349 -182.071
lowerback 11.0032 -2.35044 -4.46346
upperback 1.96744 -3.71526 1.61935
thorax -3.71148 -1.84847 4.72177
lowerneck -17.2693 1.79355 -10.3707
upperneck 39.0507 1.74682 2.6626
head 16.9691 -1.57513 3.03358
rclavicle 2.45748e-014 -1.08338e-014
rhumerus -9.28792 -0.28418 -76.6561
rradius 101.372
rwrist -7.15368
rhand -33.0315 -10.1991
rfingers 7.12502
rthumb -6.24459 -40.0871
lclavicle 2.45748e-014 -1.08338e-014
lhumerus 27.5693 -18.7513 79.4787
lradius 74.9764
lwrist 21.9204
lhand -20.3685 41.3401
lfingers 7.12502
lthumb 5.98404 71.2356
rfemur -17.5975 -7.43496 22.7744
rtibia 6.99717
rfoot 3.60223 -15.8794
rtoes 18.0559
lfemur -73.165 11.4441 -34.9845
ltibia 89.443
lfoot -16.9819 -18.124
ltoes 1.14966
657
root 2.36264 29.4789 -1.48665 -165.827 -23.7563 -182.06
lowerback 10.9361 -2.31996 -4.45542
upperback 1.98511 -3.6734 1.54845
thorax -3.66585 -1.82966 4.63256
lowerneck -17.2639 1.82082 -10.2798
upperneck 39.0437 1.7766 2.61892
head 16.9627 -1.55359 3.00349
rclavicle -1.28216e-014 -2.94698e-014
rhumerus -9.40317 -0.410409 -76.6105
rradius 101.453
rwrist -7.23606
rhand -33.0649 -10.19
rfingers 7.12502
rthumb -6.27689 -40.077
lclavicle -1.28216e-014 -2.94698e-014
lhumerus 27.6602 -18.9166 79.4624
lradius 75.0892
lwrist 21.9736
lhand -20.6156 41.7423
lfingers 7.12502
lthumb 5.74545 71.6444
rfemur -17.8203 -7.39794 22.7429
rtibia 7.34579
rfoot 3.3798 -15.7459
rtoes 18.0526
lfemur -72.8212 11.2628 -35.1133
ltibia 89.4063
lfoot -17.6628 -17.3503
ltoes 0.776051
658
root 2.34823 29.4698 -1.49262 -165.764 -23.6962 -181.991
lowerback 10.9451 -2.28161 -4.42332
upperback 1.95046 -3.61855 1.51252
thorax -3.7175 -1.79945 4.57174
lowerneck -17.2436 1.8608 -10.163
upperneck 39.1558 1.77604 2.58622
head 17.0195 -1.55443 2.96823
rclavicle -2.57923e-014 -1.41634e-014
rhumerus -9.58405 -0.522954 -76.4786
rradius 101.551
rwrist -7.29687
rhand -33.2229 -10.2193
rfingers 7.12502
rthumb -6.42936 -40.1017
lclavicle -2.57923e-014 -1.41634e-014
lhumerus 27.6477 -19.1068 79.5513
lradius 75.2829
lwrist 21.8433
lhand -20.6978 41.8951
lfingers 7.12502
lthumb 5.66608 71.7993
rfemur -18.0224 -7.37311 22.781
rtibia 7.63218
rfoot 3.21858 -15.5964
rtoes 18.0206
lfemur -72.5623 11.0629 -35.1991
ltibia 89.4544
lfoot -18.3243 -17.058
ltoes 1.92134
659
root 2.33358 29.4633 -1.50096 -165.722 -23.6101 -181.897
lowerback 11.0273 -2.30442 -4.38258
upperback 1.89193 -3.64635 1.49001
thorax -3.82526 -1.80783 4.53598
lowerneck -17.2253 1.90078 -10.1392
upperneck 39.1991 1.84116 2.49749
head 17.0351 -1.54561 2.93435
rclavicle -2.78205e-014 2.01394e-014
rhumerus -9.75142 -0.39922 -76.3977
rradius 101.667
rwrist -7.36056
rhand -33.3768 -10.2108
rfingers 7.12502
rthumb -6.57795 -40.0886
lclavicle -2.78205e-014 2.01394e-014
lhumerus 27.4537 -19.1595 79.4913
lradius 75.6696
lwrist 21.6089
lhand -20.817 41.7893
lfingers 7.12502
lthumb 5.55104 71.6966
rfemur -18.238 -7.30536 22.8333
rtibia 8.02106
rfoot 3.05091 -15.4174
rtoes 17.9024
lfemur -72.2897 10.8737 -35.2248
ltibia 89.4914
lfoot -19.0041 -17.0499
ltoes 3.66522
